<svg xmlns="http://www.w3.org/2000/svg" xmlns:xlink="http://www.w3.org/1999/xlink" width="160" height="70" viewBox="0 0 272.875 79.333"><defs><path id="a" d="M153.294 68.743c-2.194-.969-4.097-2.296-5.65-3.944-1.536-1.631-2.731-3.593-3.549-5.827-.812-2.256-1.225-4.694-1.225-7.245 0-2.557.412-5 1.224-7.25.818-2.239 2.014-4.201 3.55-5.832 1.553-1.649 3.456-2.976 5.649-3.942 2.203-.968 4.704-1.459 7.432-1.459 2.722 0 5.218.491 7.42 1.458 2.211.975 4.111 2.302 5.651 3.943 1.538 1.631 2.731 3.594 3.549 5.827.812 2.255 1.225 4.698 1.225 7.255 0 2.551-.412 4.989-1.224 7.24-.818 2.236-2.012 4.2-3.553 5.835-1.538 1.641-3.438 2.965-5.649 3.941-2.187.966-4.682 1.455-7.419 1.455-2.745 0-5.245-.49-7.431-1.455m-3.252-41.624c-3.271 1.306-6.112 3.17-8.448 5.541-2.328 2.364-4.169 5.201-5.474 8.428-1.304 3.217-1.965 6.797-1.965 10.639 0 3.837.661 7.412 1.965 10.626 1.3 3.216 3.139 6.052 5.475 8.431 2.332 2.369 5.176 4.233 8.445 5.54 3.264 1.308 6.856 1.973 10.685 1.973 3.82 0 7.397-.665 10.627-1.974 2.701-1.092 5.136-2.579 7.258-4.431v1.068c0 2.405 1.955 4.361 4.36 4.361 2.404 0 4.361-1.956 4.361-4.366l-.075-20.332.017-.313.021-.583c0-3.829-.664-7.408-1.973-10.636-1.305-3.231-3.165-6.07-5.533-8.439-2.38-2.37-5.219-4.231-8.436-5.53-3.215-1.304-6.791-1.966-10.627-1.966-3.842 0-7.437.661-10.683 1.963"/></defs><use xlink:href="#a" overflow="visible" fill="#fff"/><clipPath id="b"><use xlink:href="#a" overflow="visible"/></clipPath><path clip-path="url(#b)" fill="#fff" d="M134.155 25.156h53.176v53.14h-53.176z"/><defs><path id="c" d="M23.888 27.438c-3.259 1.307-6.085 3.164-8.401 5.515-2.313 2.348-4.143 5.167-5.442 8.379-1.296 3.216-1.952 6.768-1.952 10.558 0 3.8.658 7.353 1.952 10.561 1.291 3.205 3.122 6.023 5.439 8.376 2.317 2.361 5.146 4.217 8.405 5.518 3.241 1.294 6.81 1.951 10.607 1.951 3.601 0 7.012-.715 10.144-2.127 2.114-.96 4.105-2.294 5.918-3.968.905-.833 1.403-2.02 1.369-3.255-.034-1.244-.603-2.411-1.562-3.201l-.783.951.773-.96c-1.682-1.387-4.104-1.313-5.639.167-1.081 1.045-2.3 1.946-3.618 2.683-1.985 1.101-4.206 1.657-6.602 1.657-2.714 0-5.196-.489-7.378-1.454-2.22-.98-4.055-2.258-5.609-3.906-1.538-1.641-2.722-3.592-3.518-5.801-.814-2.224-1.225-4.643-1.225-7.191 0-2.54.414-4.958 1.227-7.194.792-2.196 1.976-4.144 3.514-5.785 1.543-1.637 3.433-2.956 5.613-3.917 2.167-.96 4.65-1.446 7.377-1.446 2.277 0 4.417.525 6.36 1.567 1.345.716 2.64 1.628 3.84 2.714 1.552 1.402 3.866 1.528 5.502.3 1.05-.787 1.674-1.994 1.713-3.309.038-1.309-.508-2.543-1.503-3.386-1.716-1.459-3.597-2.684-5.591-3.648-3.156-1.524-6.628-2.298-10.322-2.298-3.798-.002-7.367.656-10.608 1.949"/></defs><use xlink:href="#c" overflow="visible" fill="#fff"/><clipPath id="d"><use xlink:href="#c" overflow="visible"/></clipPath><path clip-path="url(#d)" fill="#fff" d="M8.093 25.487h43.869v52.809h-43.869z"/><defs><path id="e" d="M56.903 52.001c0 2.96 2.408 5.368 5.368 5.368 2.959 0 5.367-2.408 5.367-5.368s-2.408-5.367-5.367-5.367c-2.96 0-5.368 2.408-5.368 5.367"/></defs><use xlink:href="#e" overflow="visible" fill="#fff"/><clipPath id="f"><use xlink:href="#e" overflow="visible"/></clipPath><path clip-path="url(#f)" fill="#fff" d="M56.903 46.634h10.735v10.735h-10.735z"/><defs><path id="g" d="M198.162 1.396c-2.234 0-4.051 1.818-4.051 4.051v48.045l-.003.504c-.028 4.07-.105 14.884 9.801 23.461.74.641 1.668.959 2.602.959 1.021 0 2.046-.381 2.827-1.135l.169-.162c.817-.789 1.268-1.891 1.236-3.023-.029-1.131-.537-2.202-1.393-2.941-6.138-5.313-6.351-11.678-6.492-15.889l-.013-19.253c0-.877.711-1.589 1.588-1.589h8.149c2.233 0 4.052-1.818 4.052-4.051 0-2.234-1.818-4.051-4.052-4.051h-8.149c-.877 0-1.588-.712-1.588-1.589v-19.287c0-2.233-1.818-4.051-4.053-4.051h-.63z"/></defs><use xlink:href="#g" overflow="visible" fill="#fff"/><clipPath id="h"><use xlink:href="#g" overflow="visible"/></clipPath><path clip-path="url(#h)" fill="#fff" d="M194.003 1.396h22.632v77.02h-22.632z"/><defs><path id="i" d="M224.656 47.604c0-.271.102-1.04.772-3.112.521-1.59 1.412-3.25 2.645-4.933 1.224-1.668 2.918-3.177 5.032-4.481 2.062-1.268 4.709-1.91 7.865-1.91 2.136 0 4.175.393 6.064 1.163 1.904.775 3.57 1.834 4.952 3.148 1.363 1.3 2.466 2.844 3.279 4.59.792 1.697 1.193 3.561 1.193 5.535h2.466-34.268zm6.426-20.5c-3.053 1.342-5.752 3.226-8.021 5.603-2.268 2.381-4.04 5.206-5.272 8.396-1.234 3.179-1.859 6.7-1.859 10.472 0 3.904.607 7.511 1.801 10.718 1.201 3.24 2.961 6.087 5.229 8.462 2.272 2.386 5.014 4.258 8.144 5.566 3.136 1.31 6.667 1.975 10.498 1.975 3.196 0 6.249-.434 9.075-1.287 1.16-.352 2.113-1.182 2.617-2.279.498-1.086.506-2.335.062-3.315l-.046-.121c-.896-2.021-3.182-2.965-5.315-2.201-2.034.73-4.15 1.103-6.292 1.103-3.446 0-6.271-.647-8.398-1.92-2.181-1.301-3.938-2.873-5.222-4.668-1.289-1.806-2.19-3.689-2.681-5.592-.13-.511-.242-.997-.338-1.462-.104-.509.022-1.031.351-1.435.33-.406.82-.639 1.343-.639h34.242c2.311 0 4.188-1.877 4.188-4.186v-1.435c0-2.898-.516-5.812-1.535-8.668-1.032-2.868-2.575-5.449-4.581-7.667-2.025-2.241-4.552-4.062-7.508-5.411-2.973-1.358-6.428-2.046-10.27-2.046-3.704-.001-7.142.685-10.212 2.037"/></defs><use xlink:href="#i" overflow="visible" fill="#fff"/><clipPath id="j"><use xlink:href="#i" overflow="visible"/></clipPath><path clip-path="url(#j)" fill="#fff" d="M215.93 25.066h49.258v53.229h-49.258z"/><defs><path id="k" d="M93.799 68.75c-2.198-.968-4.098-2.296-5.651-3.943-1.539-1.633-2.731-3.593-3.549-5.827-.812-2.256-1.225-4.696-1.225-7.253 0-2.552.413-4.991 1.223-7.241.819-2.237 2.012-4.2 3.55-5.832 1.555-1.65 3.454-2.975 5.652-3.945 2.184-.966 4.683-1.457 7.428-1.457 2.738 0 5.235.49 7.421 1.458 2.207.974 4.11 2.299 5.652 3.942 1.537 1.635 2.731 3.596 3.547 5.828.812 2.255 1.225 4.694 1.225 7.246 0 2.557-.412 4.996-1.225 7.251-.816 2.236-2.01 4.197-3.55 5.831-1.539 1.642-3.441 2.968-5.649 3.941-2.202.968-4.698 1.458-7.421 1.458-2.727.001-5.227-.49-7.428-1.457m25.312-61.469v24.279c-2.119-1.853-4.554-3.338-7.255-4.43-3.23-1.311-6.807-1.975-10.629-1.975-3.824 0-7.42.664-10.681 1.971-3.274 1.309-6.115 3.173-8.45 5.543-2.331 2.376-4.174 5.213-5.474 8.427-1.303 3.22-1.964 6.795-1.964 10.63 0 3.838.661 7.417 1.964 10.635 1.306 3.229 3.147 6.066 5.476 8.43 2.335 2.371 5.176 4.234 8.448 5.539 3.247 1.305 6.841 1.966 10.682 1.966 3.838 0 7.413-.662 10.626-1.967 3.217-1.298 6.055-3.157 8.438-5.53 2.363-2.363 4.226-5.204 5.531-8.436 1.311-3.23 1.974-6.81 1.974-10.637l-.023-.584-.015-.289.077-43.569v-.003c0-2.405-1.958-4.362-4.363-4.362-2.404 0-4.362 1.957-4.362 4.362"/></defs><use xlink:href="#k" overflow="visible" fill="#fff"/><clipPath id="l"><use xlink:href="#k" overflow="visible"/></clipPath><path clip-path="url(#l)" fill="#fff" d="M74.658 2.919h53.178v75.376h-53.178z"/></svg>